<svg width="36" height="35" viewBox="0 0 36 35" fill="none" xmlns="http://www.w3.org/2000/svg">
<path d="M18.2454 0.439758C8.50186 0.439758 0.60025 8.37225 0.60025 18.1577C0.60025 25.9843 5.65622 32.6241 12.671 34.969C13.5534 35.1323 13.8755 34.5852 13.8755 34.1153C13.8755 33.694 13.86 32.58 13.8512 31.102C8.94304 32.1719 7.90626 28.7263 7.90626 28.7263C7.10551 26.6792 5.9474 26.1343 5.9474 26.1343C4.3437 25.0358 6.06652 25.0578 6.06652 25.0578C7.83787 25.1836 8.76877 26.8843 8.76877 26.8843C10.3438 29.591 12.9005 28.8101 13.9064 28.3557C14.0652 27.2108 14.5218 26.4299 15.027 25.9865C11.1093 25.5387 6.98859 24.0188 6.98859 17.2312C6.98859 15.2966 7.67684 13.715 8.80627 12.4753C8.62318 12.0275 8.01876 10.2252 8.97833 7.78768C8.97833 7.78768 10.4607 7.3112 13.8314 9.60315C15.2387 9.2105 16.7476 9.01417 18.2498 9.00755C19.7476 9.01638 21.2587 9.2105 22.6683 9.60536C26.0367 7.31341 27.5169 7.78988 27.5169 7.78988C28.4787 10.2296 27.8742 12.0297 27.6934 12.4775C28.825 13.7172 29.5066 15.2988 29.5066 17.2334C29.5066 24.0387 25.3816 25.5365 21.4506 25.9755C22.0837 26.5226 22.6484 27.6035 22.6484 29.2557C22.6484 31.6249 22.6264 33.5352 22.6264 34.1153C22.6264 34.5896 22.944 35.1411 23.8396 34.9668C30.8434 32.6197 35.895 25.9821 35.895 18.1577C35.895 8.37225 27.9934 0.439758 18.2454 0.439758Z" fill="#A2A2A2"/>
</svg>
