<svg width="36" height="35" viewBox="0 0 36 35" fill="none" xmlns="http://www.w3.org/2000/svg">
<g clip-path="url(#clip0)">
<path d="M17.8002 0.199768C8.19192 0.199768 0.400208 7.99148 0.400208 17.5998C0.400208 27.2081 8.19192 34.9998 17.8002 34.9998C27.4085 34.9998 35.2002 27.2081 35.2002 17.5998C35.2002 7.99148 27.4085 0.199768 17.8002 0.199768ZM12.744 25.5037C12.744 26.056 12.2963 26.5037 11.744 26.5037H9.50628C8.95399 26.5037 8.50628 26.056 8.50628 25.5037V14.7545C8.50628 14.2022 8.95399 13.7545 9.50628 13.7545H11.744C12.2963 13.7545 12.744 14.2022 12.744 14.7545V25.5037ZM10.6253 12.0136H10.5976C9.17561 12.0136 8.25591 11.0347 8.25591 9.81124C8.25591 8.56019 9.20375 7.60836 10.6534 7.60836C12.103 7.60836 12.9951 8.56019 13.0227 9.81124C13.0227 11.0347 12.103 12.0136 10.6253 12.0136ZM28.0242 25.5037C28.0242 26.056 27.5765 26.5037 27.0242 26.5037H24.787C24.2347 26.5037 23.787 26.056 23.787 25.5037V19.6832C23.787 17.9691 23.1735 16.8001 21.6402 16.8001C20.4696 16.8001 19.7724 17.5886 19.466 18.3498C19.3539 18.6222 19.3266 19.003 19.3266 19.3839V25.5037C19.3266 26.056 18.8789 26.5037 18.3266 26.5037H16.094C15.5398 26.5037 15.0913 26.0569 15.0936 25.5028C15.1035 23.1506 15.1253 17.2825 15.1063 14.7965C15.102 14.226 15.5661 13.7545 16.1366 13.7545H18.9146C19.1421 13.7545 19.3266 13.939 19.3266 14.1665V14.1665C19.3266 14.5769 19.9076 14.7648 20.2132 14.4907C20.8428 13.9261 21.7578 13.4553 23.1456 13.4553C25.9336 13.4553 28.0242 15.2774 28.0242 19.1933V25.5037Z" fill="#A2A2A2"/>
</g>
<defs>
<clipPath id="clip0">
<rect width="34.8" height="34.8" fill="white" transform="translate(0.400208 0.199768)"/>
</clipPath>
</defs>
</svg>
