<svg width="36" height="36" viewBox="0 0 36 36" fill="none" xmlns="http://www.w3.org/2000/svg">
<rect x="0.5" y="0.5" width="35" height="35" rx="17.5" fill="#9F9F9F" stroke="#9F9F9F"/>
<path d="M18.5 19C21.5374 19 24 16.761 24 14.0004C24 11.239 21.5374 9 18.5 9C15.4621 9 13 11.239 13 14.0004C13.0014 16.7606 15.4626 18.9979 18.5 19ZM18.5 11.7385C19.8819 11.7385 21.0024 12.757 21.0024 14.0136C21.0024 15.2698 19.8819 16.2884 18.5 16.2884C17.1176 16.2884 15.9971 15.2698 15.9971 14.0136C15.9994 12.7583 17.119 11.7406 18.5 11.7385Z" fill="white"/>
<path d="M12.5003 28C13.3274 27.9982 13.9978 27.4723 14.0002 26.8236V25.8822C14.0002 23.9329 16.0144 22.3527 18.5002 22.3527C20.9852 22.3527 22.9998 23.9329 22.9998 25.8822V26.8236C22.9998 27.4734 23.6717 28 24.5001 28C25.3286 28 26 27.4734 26 26.8236V25.8822C26 22.6337 22.6421 20 18.5002 20C14.3584 20 11 22.6337 11 25.8822V26.8236C11.0023 27.4723 11.6728 27.9982 12.5003 28V28Z" fill="white"/>
</svg>
