<svg width="1005" height="1018" viewBox="0 0 1005 1018" fill="none" xmlns="http://www.w3.org/2000/svg">
<path d="M502.267 612.865C552.889 612.865 593.926 571.735 593.926 521C593.926 470.264 552.889 429.134 502.267 429.134C451.645 429.134 410.608 470.264 410.608 521C410.608 571.735 451.645 612.865 502.267 612.865Z" fill="#E8EBFF"/>
<path d="M502.267 709.211C773.896 709.211 994.095 624.946 994.095 521C994.095 417.053 773.896 332.788 502.267 332.788C230.638 332.788 10.4392 417.053 10.4392 521C10.4392 624.946 230.638 709.211 502.267 709.211Z" stroke="#E8EBFF" stroke-width="20"/>
<path d="M339.637 615.106C475.452 850.873 658.363 999.867 748.181 947.894C837.999 895.921 800.711 662.661 664.897 426.894C529.082 191.127 346.171 42.1326 256.353 94.1057C166.535 146.079 203.823 379.339 339.637 615.106Z" stroke="#E8EBFF" stroke-width="20"/>
<path d="M339.637 426.894C203.823 662.661 166.535 895.921 256.353 947.894C346.171 999.867 529.082 850.873 664.897 615.106C800.711 379.339 837.999 146.079 748.181 94.1059C658.363 42.1328 475.452 191.127 339.637 426.894Z" stroke="#E8EBFF" stroke-width="20"/>
</svg>
